<?xml version="1.0"?>
<svg width="512" height="512" xmlns="http://www.w3.org/2000/svg" xmlns:svg="http://www.w3.org/2000/svg" version="1.1" xml:space="preserve">
 <g class="layer">
  <title>Layer 1</title>
  <g id="svg_1">
   <g id="svg_2">
    <g id="svg_3">
     <path d="m486.4,68.27l-460.8,0c-14.13,0 -25.6,11.46 -25.6,25.6l0,324.26c0,14.14 11.47,25.6 25.6,25.6l460.8,0c14.13,0 25.6,-11.46 25.6,-25.6l0,-324.26c0,-14.14 -11.47,-25.6 -25.6,-25.6zm8.53,349.86c0,4.71 -3.82,8.54 -8.53,8.54l-460.8,0c-4.71,0 -8.53,-3.83 -8.53,-8.54l0,-324.26c0,-4.71 3.82,-8.54 8.53,-8.54l460.8,0c4.71,0 8.53,3.83 8.53,8.54l0,324.26z" id="svg_4"/>
     <path d="m426.67,128l-341.34,0c-4.71,0 -8.53,3.82 -8.53,8.53l0,162.14c0,4.71 3.82,8.53 8.53,8.53l42.67,0l0,34.13c0,4.72 3.82,8.54 8.53,8.54l51.2,0l0,25.6c0,4.71 3.82,8.53 8.54,8.53l119.46,0c4.72,0 8.54,-3.82 8.54,-8.53l0,-25.6l51.2,0c4.71,0 8.53,-3.83 8.53,-8.54l0,-34.13l42.67,0c4.71,0 8.53,-3.82 8.53,-8.53l0,-162.14c0,-4.71 -3.82,-8.53 -8.53,-8.53zm-8.54,162.13l-42.66,0c-4.72,0 -8.54,3.82 -8.54,8.54l0,34.13l-51.2,0c-4.71,0 -8.53,3.82 -8.53,8.53l0,25.6l-102.4,0l0,-25.6c0,-4.71 -3.82,-8.53 -8.53,-8.53l-51.2,0l0,-34.13c0,-4.72 -3.82,-8.54 -8.54,-8.54l-42.66,0l0,-145.06l17.06,0l0,17.06c0,4.72 3.82,8.54 8.54,8.54s8.53,-3.82 8.53,-8.54l0,-17.06l17.07,0l0,17.06c0,4.72 3.82,8.54 8.53,8.54c4.71,0 8.53,-3.82 8.53,-8.54l0,-17.06l17.07,0l0,17.06c0,4.72 3.82,8.54 8.53,8.54s8.54,-3.82 8.54,-8.54l0,-17.06l17.06,0l0,17.06c0,4.72 3.82,8.54 8.54,8.54s8.53,-3.82 8.53,-8.54l0,-17.06l17.07,0l0,17.06c0,4.72 3.82,8.54 8.53,8.54s8.53,-3.82 8.53,-8.54l0,-17.06l17.07,0l0,17.06c0,4.72 3.82,8.54 8.53,8.54s8.54,-3.82 8.54,-8.54l0,-17.06l17.06,0l0,17.06c0,4.72 3.82,8.54 8.54,8.54s8.53,-3.82 8.53,-8.54l0,-17.06l17.07,0l0,17.06c0,4.72 3.82,8.54 8.53,8.54s8.53,-3.82 8.53,-8.54l0,-17.06l17.07,0l0,17.06c0,4.72 3.82,8.54 8.53,8.54c4.72,0 8.54,-3.82 8.54,-8.54l0,-17.06l17.06,0l0,145.06z" id="svg_5"/>
    </g>
   </g>
  </g>
  <line fill="none" id="svg_6" stroke="#000000" stroke-width="18" x1="11.5" x2="497.5" y1="429" y2="85"/>
 </g>
</svg>